<?xml version="1.0" encoding="utf-8"?>
<!-- Generator: Adobe Illustrator 15.1.0, SVG Export Plug-In . SVG Version: 6.00 Build 0)  -->
<!DOCTYPE svg PUBLIC "-//W3C//DTD SVG 1.1//EN" "http://www.w3.org/Graphics/SVG/1.1/DTD/svg11.dtd">
<svg version="1.1" id="Layer_1" xmlns="http://www.w3.org/2000/svg" xmlns:xlink="http://www.w3.org/1999/xlink" x="0px" y="0px"
	 width="612px" height="792px" viewBox="0 0 612 792" enable-background="new 0 0 612 792" xml:space="preserve">
<g>
	<path id="WA" fill="#A6A6A6" d="M30.191,0l-0.449,1.393l-0.347,1.59l-0.397,1.194c0,0,1.397,1.264,1.393,1.243
		c-0.005-0.021-0.25,0.695-0.25,0.695l0.646,0.547h0.846l1.094,0.498l2.734,0.397l2.841,1.091l0.541,0.203l2.188-5.819L33.374,0.05
		l-0.151,1.69l-0.844,1.592l-0.397-0.1l0.597-0.944V1.542L30.191,0z"/>
	<polygon id="OR" fill="#A6A6A6" points="24.374,11.984 24.723,10.243 26.909,7.707 28.599,5.222 28.998,4.177 30.391,5.42 
		30.141,6.115 30.788,6.663 31.632,6.663 32.728,7.161 35.46,7.558 38.842,8.852 39.19,9.546 37.152,11.786 37.451,12.232 
		35.709,16.408 30.886,14.818 	"/>
	<polygon id="NV" fill="#A6A6A6" points="34.516,32.221 35.113,29.834 36.058,30.132 36.356,30.034 40.384,17.951 30.886,14.818 
		28.104,20.636 	"/>
	<path id="ID" fill="#A6A6A6" d="M42.373,3.48L41.03,3.033l-2.188,5.818l0.348,0.695l-2.038,2.239l0.299,0.447l-1.742,4.176
		l4.674,1.542l4.923,1.441l1.495-5.261l-0.351-0.605c0,0-0.375,0.419-0.446,0.447c-0.022,0.009-1.941-0.497-1.941-0.497
		l-0.099,0.248l-0.747-1.441l-0.248-1.691l-0.944,0.099l0.944-1.988l-1.392-2.139l0.297-0.596L41.626,5.32L42.373,3.48z"/>
	<polygon id="UT" fill="#A6A6A6" points="48.24,22.028 44.909,21.233 45.307,19.393 40.384,17.951 36.989,28.143 46.301,30.48 	"/>
	<polygon id="CA" fill="#A6A6A6" points="27.48,35.975 32.516,36.982 33.284,36.953 33.262,36.535 32.889,36.124 33.485,35.005 
		34.753,34.036 34.516,32.221 28.104,20.636 30.886,14.818 24.374,11.984 23.529,13.86 22.41,14.756 22.41,17.254 21.888,18.149 
		22.484,19.455 22.26,20.35 22.671,21.394 22.335,22.699 22.969,23.818 22.781,24.153 22.521,23.93 22.11,24.712 23.342,27.808 
		22.857,29.3 24.647,30.382 25.318,31.426 26.288,31.797 26.25,32.581 26.698,32.73 27.631,34.409 	"/>
	<polygon id="AZ" fill="#A6A6A6" points="43.293,42.986 46.301,30.48 36.989,28.143 36.356,30.034 36.058,30.132 35.113,29.834 
		34.53,32.221 34.753,34.036 33.485,35.005 32.889,36.124 33.262,36.535 33.262,36.944 32.516,36.982 32.218,37.542 38.816,42.053 	
		"/>
	<polygon id="WY" fill="#A6A6A6" points="57.984,15.016 47.098,13.115 45.307,19.393 44.909,21.233 48.24,22.028 56.83,23.333 	"/>
	<polygon id="MT" fill="#A6A6A6" points="59.031,6.924 57.984,15.016 47.098,13.115 46.799,14.122 46.451,13.525 46.004,13.972 
		44.063,13.475 43.964,13.724 43.217,12.282 42.969,10.591 42.025,10.69 42.969,8.702 41.578,6.563 41.875,5.966 41.627,5.32 
		42.373,3.48 45.046,4.276 50.677,5.693 	"/>
	<polygon id="CO" fill="#A6A6A6" points="60.373,23.595 56.83,23.333 48.24,22.028 46.301,30.48 57.613,32.245 59.519,32.198 	"/>
	<polygon id="NM" fill="#A6A6A6" points="45.084,43.359 45.307,42.203 48.998,42.836 48.699,42.352 56.271,43.359 57.613,32.245 
		46.301,30.48 43.293,42.986 	"/>
	<polygon id="TX" fill="#A6A6A6" points="63.319,33.701 57.511,33.139 56.271,43.359 48.699,42.352 48.998,42.836 49.52,43.657 
		50.154,44.143 50.715,44.962 51.05,45.56 51.832,45.932 52.28,47.052 52.132,47.573 52.429,48.319 53.324,49.214 55.338,50.22 
		56.01,49.586 56.457,48.655 57.203,48.655 57.352,48.282 57.838,48.542 59.329,48.73 59.777,49.4 60.112,49.736 60.933,50.519 
		61.566,52.383 62.201,53.13 62.798,53.951 63.245,53.951 63.395,55.629 64.252,57.12 64.625,56.971 65.593,57.419 66.265,58.09 
		67.534,58.239 68.167,58.461 68.651,58.053 68.055,55.592 68.13,54.995 68.54,54.1 68.055,53.615 68.914,53.652 69.399,52.906 
		70.516,52.086 70.032,51.751 71.001,51.937 72.643,51.116 73.985,49.998 73.611,49.288 73.91,49.4 74.283,48.916 74.283,49.476 
		74.693,49.513 75.961,49.103 75.924,48.767 76.594,47.76 76.446,46.978 76.631,45.597 75.997,44.627 75.924,44.104 75.401,43.807 
		75.215,40.189 72.866,39.368 70.592,39.929 69.399,39.519 68.802,39.929 68.651,39.593 68.428,39.629 67.943,39.332 67.421,39.629 
		66.936,38.921 66.154,39.332 64.773,38.846 64.363,38.361 63.879,38.397 63.169,37.839 	"/>
	<path id="OK" fill="#A6A6A6" d="M59.519,32.198l14.166,0.458l0.038,1.185l0.56,2.06l0.077,2.274l0.036,1.715l-1.529-0.522
		l-2.274,0.561l-1.194-0.41l-0.596,0.41l-0.151-0.335l-0.224,0.036l-0.485-0.298l-0.521,0.298l-0.486-0.708l-0.782,0.411
		l-1.38-0.486l-0.411-0.484l-0.484,0.036l-0.709-0.558l0.15-4.14l-5.809-0.561l0.103-0.893L59.519,32.198z"/>
	<polygon id="KS" fill="#A6A6A6" points="72.072,26.011 66.645,26.257 60.168,25.697 59.519,32.198 73.685,32.656 73.506,27.974 
		72.573,27.08 73.062,26.581 72.819,26.249 72.532,26.381 	"/>
	<polygon id="NE" fill="#A6A6A6" points="66.671,19.813 57.404,19.127 56.83,23.333 60.373,23.595 60.168,25.697 66.645,26.257 
		72.072,26.011 72.062,25.877 71.424,24.865 71.145,22.997 69.976,20.714 68.724,20.042 67.467,20.323 	"/>
	<polygon id="SD" fill="#A6A6A6" points="69.841,13.806 63.949,13.559 58.24,13.054 57.396,19.115 66.671,19.813 67.467,20.323 
		68.724,20.042 69.976,20.714 69.697,20.331 69.987,19.152 69.853,18.762 70.136,18.732 	"/>
	<polygon id="ND" fill="#A6A6A6" points="68.816,7.574 69.058,8.099 68.978,9.338 69.369,10.2 69.557,12.488 69.841,13.806 
		63.949,13.559 58.24,13.054 59.029,6.956 62.301,7.385 	"/>
	<polygon id="ME" fill="#A6A6A6" points="109.09,1.598 109.472,1.598 109.569,1.852 109.902,1.852 110.487,1.123 111.519,1.423 
		112.884,3.771 113.343,3.707 113.645,3.74 113.961,4.342 114.232,4.342 114.341,4.185 115.15,4.691 115.072,5.072 113.899,6.817 
		113.422,6.578 113.375,7.229 112.82,6.769 112.945,7.784 112.582,8.022 112.185,8.768 111.884,8.467 111.582,9.084 111.868,9.434 
		111.551,10.796 110.822,10.21 108.791,6.706 109.25,6.689 109.075,6.087 109.377,5.119 109.108,4.738 109.125,4.024 108.871,3.327 
		108.981,2.994 108.966,2.185 109.075,2.042 	"/>
	<polygon id="VT" fill="#A6A6A6" points="108.062,12.922 109.098,12.428 108.633,10.812 108.396,9.338 108.871,8.338 108.537,8.101 
		108.544,7.426 105.836,8.701 106.094,9.576 106.554,9.924 106.554,10.433 106.989,11.432 107.22,11.257 	"/>
	<polygon id="NH" fill="#A6A6A6" points="108.871,8.338 108.537,8.101 108.537,6.975 108.791,6.706 110.822,10.21 111.551,10.796 
		111.71,11.146 111.329,11.146 111.059,11.67 109.098,12.428 108.633,10.812 108.396,9.338 	"/>
	<path id="Mass" fill="#A6A6A6" d="M108.062,12.922l0.254,1.494l1.138-0.482l1.381-0.655l0.134,0.072l0.583-0.298l0.81,0.902
		l0.677-0.799l0.134,0.206l0.562-0.358l0.358-0.133l-0.02-0.338l-0.698-0.45l0.37,0.358l0.103,0.295l-0.388,0.226l-0.278-0.154
		l-0.184-0.308l-0.778-0.265l-0.307,0.051c0,0-0.225-0.215-0.135-0.225c0.093-0.011,0.379-0.769,0.379-0.769l-0.345,0.052
		l-0.101-0.197h-0.38l-0.27,0.523l-1.962,0.758l0,0L108.062,12.922z"/>
	<polygon id="RI" fill="#A6A6A6" points="111.562,14.775 112.127,14.344 111.882,13.422 111.553,13.054 110.969,13.352 
		110.999,13.536 111.44,14.406 111.44,14.616 	"/>
	<polygon id="CT" fill="#A6A6A6" points="108.991,16.434 108.838,16.342 109.023,15.962 108.316,14.417 109.454,13.934 
		110.835,13.279 110.969,13.352 110.999,13.536 111.44,14.406 111.44,14.616 111.562,14.775 	"/>
	<polygon id="NJ" fill="#A6A6A6" points="107.021,16.501 108.665,16.72 108.409,17.857 108.981,17.878 109.362,19.701 
		108.674,21.391 108.551,20.971 108.316,21.053 107.189,20.634 107.133,20.026 108.082,18.826 106.842,18.236 106.667,17.889 
		106.793,17.575 106.558,17.393 	"/>
	<polygon id="DE" fill="#A6A6A6" points="106.523,20.335 106.878,19.9 106.989,19.876 107.133,20.026 107.189,20.634 
		107.416,20.716 107.896,21.504 108.439,21.617 108.644,21.791 108.991,22.354 108.576,22.575 107.91,22.854 	"/>
	<polygon id="MD" fill="#A6A6A6" points="100.401,22.352 106.523,20.335 107.91,22.854 108.576,22.575 108.991,22.354 
		108.779,23.32 108.804,24.912 108.579,25.657 108.231,25.087 108.182,24.688 108.407,23.818 107.934,23.892 107.711,23.42 
		107.511,23.595 106.74,23.146 106.989,22.725 106.293,21.581 106.518,20.884 105.945,21.457 106.169,21.929 106.268,22.848 
		106.989,23.992 106.518,23.992 106.143,24.141 105.68,23.916 105.596,23.744 105.199,24.066 105.071,23.791 105.275,23.104 
		105.173,22.773 104.33,22.624 104.238,22.318 103.633,22.3 103.483,22.077 103.036,21.853 102.641,21.769 102.366,22.202 
		102.062,22.239 101.793,22.177 101.365,22.61 100.838,23.352 100.537,22.985 	"/>
	<polygon id="NY" fill="#A6A6A6" points="98.014,17.379 98.362,17.901 105.294,15.523 106.068,15.936 106.217,16.359 
		107.021,16.501 108.665,16.72 108.409,17.857 109.25,17.23 109.749,16.956 110.294,16.459 110.669,16.334 111.639,15.19 
		110.842,15.588 110.271,15.962 109.872,16.284 108.927,16.806 108.991,16.434 108.838,16.342 109.023,15.962 108.316,14.417 
		108.062,12.922 107.22,11.257 106.989,11.432 106.554,10.433 106.554,9.924 106.094,9.576 105.836,8.701 103.755,9.423 
		101.942,11.984 102.563,12.132 102.763,12.903 102.215,13.875 101.096,14.345 99.604,14.396 98.437,14.992 99.182,15.862 
		98.834,16.434 	"/>
	<polygon id="LA" fill="#A6A6A6" points="81.331,41.108 75.295,41.49 75.401,43.807 75.924,44.104 75.997,44.627 76.631,45.597 
		76.446,46.978 76.594,47.76 75.924,48.767 75.961,49.103 76.465,49.065 77.528,48.786 78.125,48.767 78.981,49.159 79.857,49.178 
		80.157,49.084 80.753,49.271 80.904,48.99 80.53,48.841 80.25,48.935 79.953,48.767 80.624,48.431 81.201,48.655 81.388,49.084 
		82.151,49.586 83.195,49.867 83.605,49.811 84.241,49.476 84.501,49.848 84.67,49.624 84.763,48.879 86.794,49.736 86.777,49.438 
		86.74,49.103 85.955,49.009 85.304,48.355 86.012,47.963 85.788,47.349 85.416,47.928 85.062,47.723 84.986,47.462 84.445,47.499 
		83.83,47.48 84.109,46.809 85.172,47.182 85.416,47.256 85.695,47.033 84.892,46.063 84.837,45.336 80.847,45.69 81.302,43.718 
		82.096,42.463 	"/>
	<polygon id="AR" fill="#A6A6A6" points="83.364,34.111 83.064,35.341 82.637,36.366 81.07,39.368 81.331,41.108 75.29,41.49 
		75.215,40.189 74.396,39.89 74.283,35.9 73.723,33.841 73.723,33.645 77.593,33.467 79.159,33.346 82.059,33.029 82.451,32.992 
		82.488,33.252 82.562,33.346 82.225,34.092 	"/>
	<polygon id="MO" fill="#A6A6A6" points="79.042,24.827 79.034,25.269 78.945,25.458 79.914,26.652 80.66,27.155 80.94,27.976 
		81.275,27.716 81.772,27.96 81.407,28.928 81.704,29.393 83.214,30.325 83.662,30.979 83.318,31.188 83.667,31.686 84.165,31.687 
		84.26,32.716 83.737,32.955 83.364,34.111 82.225,34.092 82.562,33.346 82.488,33.252 82.451,32.992 79.159,33.346 77.593,33.467 
		73.723,33.645 73.685,32.656 73.506,27.974 72.573,27.08 73.062,26.581 72.819,26.249 72.532,26.381 72.072,26.011 72.062,25.877 
		71.424,24.865 75.142,24.77 77.882,24.434 78.432,24.442 	"/>
	<polygon id="IA" fill="#A6A6A6" points="78.58,18.265 74.954,18.597 70.136,18.732 69.853,18.762 69.987,19.152 69.697,20.331 
		69.976,20.714 71.145,22.997 71.424,24.865 75.142,24.77 76.631,24.582 77.882,24.434 78.432,24.442 79.042,24.827 79.076,24.47 
		79.466,24.229 79.561,23.78 79.788,23.647 79.784,23.258 79.411,23.035 79.494,22.896 79.503,22.681 80.767,21.936 80.829,21.076 
		80.194,20.667 79.727,19.958 79.335,19.903 78.834,19.08 79.055,18.858 	"/>
	<path id="MN" fill="#A6A6A6" d="M71.859,7.428l0.056-0.653l0.224,0.038l0.355,1.024l1.137,0.243l0.13,0.28l0.876-0.354l1.211,0.372
		l0.112,0.504l0.373-0.41l1.026,0.521l0.821-0.39l0.279,0.335l0.766-0.223l0.912,0.148l-1.043,0.652c0,0-0.728,0.485-0.764,0.56
		c-0.037,0.074-0.503,0.708-0.503,0.708l-1.338,1.092l-0.023,0.643l0.023,0.669c0,0-0.581,0.342-0.638,0.398
		c-0.055,0.056-0.301,0.554-0.301,0.554l0.544,0.468l-0.223,0.115l0.111,1.24l1.32,0.713l1.064,0.69l0.259,0.237l-0.045,0.661
		l-3.627,0.333l-4.817,0.135l-0.296-4.928l-0.283-1.317l-0.188-2.289l-0.391-0.861l0.08-1.24l-0.242-0.524L71.859,7.428z"/>
	<polygon id="MS" fill="#A6A6A6" points="88.192,46.418 86.944,46.384 85.646,46.986 84.892,46.063 84.837,45.336 80.847,45.69 
		81.302,43.718 82.096,42.463 81.331,41.108 81.07,39.368 82.637,36.366 86.866,35.87 87.058,36.873 87.359,41.928 87.487,43.144 
		87.938,45.574 	"/>
	<polygon id="AL" fill="#A6A6A6" points="91.849,35.06 93.642,39.453 94.579,40.946 94.313,41.871 94.765,42.635 94.765,43.444 
		95.15,43.684 89.489,44.764 89.535,45.089 90.106,45.466 89.998,46.291 89.581,46.408 89.373,46.291 88.771,45.505 88.703,45.806 
		88.54,46.314 88.192,46.418 87.938,45.574 87.487,43.144 87.359,41.928 87.058,36.873 86.866,35.87 	"/>
	<polygon id="GA" fill="#A6A6A6" points="96.662,34.049 96.409,34.604 97.363,34.947 97.363,34.947 97.912,35.552 99.23,36.593 
		99.972,36.652 100.203,37.08 101.174,37.614 101.535,38.331 101.986,38.574 102.402,39.372 103.027,39.488 102.819,40.552 
		102.842,42.611 101.476,42.796 101.824,43.816 101.429,43.838 101.269,43.444 95.831,44.394 95.482,44.371 95.15,43.684 
		94.765,43.444 94.765,42.635 94.313,41.871 94.579,40.946 93.642,39.453 91.849,35.06 	"/>
	<polygon id="SC" fill="#A6A6A6" points="101.331,33.301 100.945,32.8 100.436,32.753 98.445,33.076 96.662,34.049 96.409,34.604 
		97.363,34.947 97.912,35.552 99.23,36.593 99.972,36.652 100.203,37.08 101.174,37.614 101.535,38.331 101.986,38.574 
		102.402,39.372 103.027,39.488 103.768,38.214 104.855,37.08 105.619,36.016 105.527,35.53 105.619,35.16 106.012,34.35 
		106.429,34.119 104.74,33.332 103.514,32.776 	"/>
	<polygon id="FL" fill="#A6A6A6" points="106.174,47.032 104.185,45.112 102.842,42.611 101.476,42.796 101.824,43.816 
		101.429,43.838 101.269,43.444 95.831,44.394 95.482,44.371 95.15,43.684 89.489,44.764 89.535,45.089 90.106,45.466 
		89.998,46.291 91.825,45.69 92.38,45.69 94.14,46.153 94.464,46.199 95.182,46.824 95.853,46.685 96.708,46.061 97.102,45.782 
		97.45,45.297 98.12,45.527 98.561,45.597 98.931,45.967 99.37,45.967 99.556,46.43 100.436,46.986 100.898,46.777 101.523,47.471 
		101.662,49.879 102.194,50.179 102.218,49.833 101.917,49.531 102.542,49.555 102.749,49.786 102.355,50.665 103.837,52.031 
		104.045,51.615 104.299,52.587 104.787,52.679 105.481,53.79 106.29,53.906 107.238,54.762 107.215,55.271 107.587,55.411 
		108.791,54.877 109.276,54.16 109.113,53.813 109.276,52.98 108.604,50.503 106.544,48.004 	"/>
	<polygon id="NC" fill="#A6A6A6" points="108.812,26.921 109.623,27.685 108.165,28.586 109.507,28.056 110.294,28.657 
		109.762,29.583 108.536,29.652 109.137,29.86 109.252,30.161 108.951,30.809 109.669,30.323 109.531,31.017 108.304,31.574 
		107.587,32.66 107.355,33.725 106.429,34.119 103.514,32.776 101.331,33.301 100.945,32.8 100.436,32.753 98.445,33.076 
		96.662,34.049 94.255,34.556 94.349,34.003 94.743,33.863 94.904,33.147 95.483,32.904 96.385,32.197 96.87,31.642 97.102,31.642 
		97.613,31.227 98.074,31.227 98.375,30.578 98.711,30.532 98.49,29.976 101.865,29.237 105.391,28.079 	"/>
	<polygon id="TN" fill="#A6A6A6" points="86.439,32.518 86.318,32.151 86.757,32.06 89.337,31.756 94.913,30.738 98.49,29.976 
		98.711,30.532 98.375,30.578 98.074,31.227 97.613,31.227 97.102,31.642 96.87,31.642 96.385,32.197 95.483,32.904 94.904,33.147 
		94.743,33.863 94.349,34.003 94.255,34.556 91.849,35.06 86.866,35.87 82.637,36.366 83.064,35.341 83.377,34.049 83.737,32.955 
		84.26,32.716 85.027,32.708 	"/>
	<polygon id="PA" fill="#A6A6A6" points="97.014,18.259 98.014,17.379 98.362,17.901 105.294,15.523 106.068,15.936 106.217,16.359 
		107.021,16.501 106.558,17.393 106.793,17.575 106.667,17.889 106.842,18.236 108.082,18.826 107.133,20.026 106.989,19.876 
		106.878,19.9 106.523,20.335 100.401,22.352 98.544,22.752 98.156,21.713 	"/>
	<polygon id="VA" fill="#A6A6A6" points="107.769,25.287 107.365,24.317 106.989,23.992 106.518,23.992 106.143,24.141 
		105.68,23.916 105.596,23.744 105.199,24.066 105.071,23.791 105.275,23.104 105.173,22.773 104.33,22.624 104.238,22.318 
		103.633,22.3 103.613,22.78 102.588,22.309 102.602,23.224 102.007,24.068 101.741,24.055 101.412,24.99 100.761,24.761 
		100.594,26.326 100.281,26.824 100.511,27.061 99.223,28.223 98.849,28.418 98.572,28.32 98.282,28.638 97.229,28.1 97.146,28.362 
		95.94,29.941 94.913,30.738 98.49,29.976 101.865,29.237 108.812,26.921 109.03,26.783 108.627,26.201 108.28,26.133 
		108.088,26.285 107.519,25.454 	"/>
	<polygon id="WV" fill="#A6A6A6" points="95.705,27.087 95.718,26.562 96.245,26.16 96.314,25.772 96.244,25.412 96.425,24.997 
		96.661,25.19 96.938,24.955 96.661,24.553 97.035,23.972 97.354,24.041 97.922,23.071 98.156,21.713 98.544,22.752 100.401,22.352 
		100.537,22.985 100.838,23.352 101.365,22.61 101.793,22.177 102.062,22.239 102.366,22.202 102.641,21.769 103.036,21.853 
		103.483,22.077 103.633,22.3 103.613,22.78 102.588,22.309 102.602,23.224 102.007,24.068 101.741,24.055 101.412,24.99 
		100.761,24.761 100.594,26.326 100.281,26.824 100.511,27.061 99.223,28.223 98.849,28.418 98.572,28.32 98.282,28.638 
		97.229,28.1 96.689,27.96 	"/>
	<polygon id="OH" fill="#A6A6A6" points="90.039,20.522 91.26,25.979 92.367,26.022 92.561,26.355 94.224,26.408 95.013,25.979 
		95.718,26.562 96.245,26.16 96.314,25.772 96.244,25.412 96.425,24.997 96.661,25.19 96.938,24.955 96.661,24.553 97.035,23.972 
		97.354,24.041 97.922,23.071 98.156,21.713 97.014,18.259 96.08,18.93 95.898,18.985 95.345,19.747 94.03,20.342 92.315,19.866 	
		"/>
	<polygon id="KY" fill="#A6A6A6" points="85.539,31.409 85.36,31.014 85.416,30.675 86.05,30.384 85.802,29.886 86.342,29.442 
		87.146,29.276 87.672,29.51 88.185,28.93 88.669,29.138 89.016,28.459 89.708,28.695 90.483,26.991 91.37,26.576 91.26,25.979 
		92.367,26.022 92.561,26.355 94.224,26.408 95.013,25.979 95.718,26.562 95.705,27.087 96.689,27.96 97.229,28.1 97.146,28.362 
		95.94,29.941 94.913,30.738 89.337,31.756 86.757,32.06 86.318,32.151 86.439,32.518 85.027,32.708 84.26,32.716 84.165,31.687 
		84.348,31.284 84.902,31.299 85.013,31.382 	"/>
	<polygon id="IN" fill="#A6A6A6" points="86.633,27.517 86.287,26.853 86.342,26.465 86.453,26.105 85.456,21.285 85.928,21.438 
		86.901,21.031 90,20.427 90.039,20.522 91.26,25.979 91.37,26.576 90.483,26.991 89.708,28.695 89.016,28.459 88.669,29.138 
		88.185,28.93 87.672,29.51 87.146,29.276 86.342,29.442 85.802,29.886 85.928,28.75 	"/>
	<polygon id="IL" fill="#A6A6A6" points="84.58,19.697 85.456,21.285 86.453,26.105 86.342,26.465 86.287,26.853 86.633,27.517 
		85.928,28.75 85.802,29.886 86.05,30.384 85.416,30.675 85.36,31.014 85.539,31.409 85.013,31.382 84.902,31.299 84.348,31.284 
		84.165,31.687 83.667,31.686 83.318,31.188 83.662,30.979 83.214,30.325 81.704,29.393 81.407,28.928 81.772,27.96 81.275,27.716 
		80.94,27.976 80.66,27.155 79.914,26.652 78.945,25.458 79.034,25.269 79.042,24.827 79.076,24.47 79.466,24.229 79.561,23.78 
		79.788,23.647 79.784,23.258 79.411,23.035 79.494,22.896 79.503,22.681 80.767,21.936 80.767,21.936 80.829,21.076 80.194,20.667 
		79.972,20.329 81.883,20.052 	"/>
	<polygon id="WI" fill="#A6A6A6" points="84.88,13.85 84.51,15.702 84.563,16.259 84.271,16.696 84.445,17.358 84.232,18.007 
		84.245,18.365 84.709,19.053 84.58,19.697 79.972,20.329 79.727,19.958 79.335,19.903 78.834,19.08 79.055,18.858 78.58,18.265 
		78.626,17.604 78.366,17.366 77.216,16.629 75.982,15.962 75.872,14.723 76.094,14.608 75.549,14.14 75.851,13.586 76.488,13.188 
		76.465,12.519 76.488,11.876 76.78,11.89 78.5,11.149 78.646,11.215 78.487,11.838 78.87,11.757 79.302,11.893 79.943,12.301 
		82.635,12.635 83.478,13.135 83.543,13.929 83.94,13.81 83.9,14.141 84.126,14.299 83.65,15.306 84.086,14.922 84.43,14.631 	"/>
	<path id="MI" fill="#A6A6A6" d="M87.197,13.625l-0.675,0.715l0.131,0.278l-0.37,0.145l0.292,0.861l-0.398,0.556l0.371,0.503
		l-0.119,0.424l0.821,1.402l0.014,1.074l-0.225,1.005l-0.567,0.62l0.429-0.176L90,20.426l0.04,0.097l2.275-0.656l0.376-0.681
		l-0.133-0.635l0.609-0.834l0.147-0.291l-0.054-0.491l-0.953-1.761l-0.569-0.132l-0.809,1.113l-0.449-0.131l0.024-0.518l0.333-0.186
		l0.041-0.503l0.318-0.172l-0.73-1.932l-2.157-0.595l-0.119-0.292l0.159-0.159l0.648-0.145l0.185-0.279l-0.398-0.703l-1.165,0.239
		l-0.16,0.093l-0.171-0.556l-1.483,0.345l-0.726,0.674l-1.126,0.159l-0.555-0.569l-0.901-0.199l-0.304,0.278l0.119-0.782
		l0.649-0.701l-0.676,0.171l-0.489,0.556l-0.994,0.862l-0.673,0.185l-0.81,0.595l0.624,0.411l2.692,0.334l0.842,0.5l0.065,0.794
		l0.396-0.119L83.9,14.141l0.226,0.159l0.264-0.661l0.081-0.583c0,0,0.342-0.171,0.383-0.198c0.04-0.028,0.531-0.385,0.531-0.385
		l1.072-0.398l0.358-0.092l0.171-0.186l0.452,0.106l0.516,0.105l0.065,0.145l-0.333,0.504l0.333,0.331l-0.569,0.437L87.197,13.625z"
		/>
	<g id="AK">
		<polygon fill="#A6A6A6" points="6.502,38.346 6.801,38.527 7.1,38.168 8.177,38.228 8.477,38.646 8.865,38.019 9.014,38.437 
			9.254,38.437 9.912,38.376 9.704,38.916 9.464,38.825 9.434,39.722 8.596,40.501 8.627,40.68 8.505,40.741 8.326,40.591 
			8.057,41.039 7.968,40.92 7.37,41.458 7.25,41.667 7.1,41.816 6.801,41.549 6.682,41.637 6.413,41.339 5.066,42.445 5.156,42.686 
			5.485,42.834 5.455,42.565 5.844,42.834 6.413,41.997 6.651,42.357 7.191,42.357 7.489,42.027 7.458,42.327 7.698,42.206 
			8.057,41.908 8.686,41.757 9.014,41.19 9.704,40.86 10.061,40.891 10.241,40.172 11.11,39.843 11.768,39.574 11.796,39.066 
			12.367,38.616 11.916,38.346 11.827,37.958 12.276,37.599 13.322,36.043 13.891,35.715 14.131,35.147 14.25,35.505 14.488,35.594 
			14.67,35.416 14.67,36.013 14.161,36.013 13.772,36.552 13.623,37.39 13.471,37.569 14.04,37.271 13.383,37.808 13.742,37.988 
			14.222,37.779 14.7,37.36 14.939,37.15 15.627,37.209 15.535,36.402 15.328,36.043 15.535,35.954 15.776,36.133 16.584,35.775 
			16.462,36.282 17.361,36.583 17.601,36.252 17.78,36.642 18.558,37.09 19.815,36.91 20.354,36.792 20.502,37.061 20.951,37.12 
			20.98,36.91 20.862,36.523 20.443,36.374 20.234,36.461 18.439,24.735 17.481,24.286 16.553,24.526 14.222,23.719 14.012,23.898 
			13.532,24.048 13.203,23.688 13.353,23.329 12.425,23.389 12.485,23.091 12.246,23.12 12.157,23.359 11.947,23.359 11.947,22.941 
			11.616,22.611 11.05,23.24 10.66,23.06 9.313,23.659 8.147,25.125 7.071,25.035 6.92,25.455 6.472,25.663 6.651,25.932 
			7.01,26.112 7.489,27.098 7.578,27.429 8.386,27.877 8.566,28.235 9.464,28.326 9.404,28.685 8.386,28.504 8.207,28.086 
			8.356,28.775 7.43,28.685 7.34,28.326 6.413,28.265 6.413,28.535 6.023,28.326 5.156,28.685 5.844,29.432 5.425,29.642 
			5.514,30.06 5.994,30.359 6.472,30.688 7.28,30.808 8.326,30.627 8.537,30.899 8.207,31.047 8.356,32.005 7.698,32.184 
			7.52,32.125 7.161,32.603 6.831,32.603 6.531,32.363 4.828,34.01 4.976,34.607 5.246,34.787 5.455,35.147 6.023,35.296 
			6.054,35.446 5.336,35.206 4.946,35.416 5.425,36.433 6.084,36.552 6.203,36.433 6.472,36.461 6.651,36.043 7.13,35.594 
			6.861,36.133 6.861,36.792 6.651,37.479 		"/>
		<polygon fill="#A6A6A6" points="20.98,37.331 21.938,37.629 22.147,37.658 23.076,38.408 23.615,38.346 23.194,37.898 
			23.435,37.719 23.882,37.719 23.882,37.36 24.332,38.019 24.601,38.257 24.99,38.107 25.17,38.257 25.678,38.556 25.767,38.825 
			25.828,39.124 26.814,39.873 27.204,40.262 27.323,40.621 27.801,40.172 28.131,40.441 28.191,41.249 28.49,41.727 28.819,41.099 
			28.579,40.411 28.76,40.022 26.935,39.574 26.784,39.124 25.708,37.869 25.139,37.39 24.78,37.479 24.242,36.971 24.002,36.642 
			23.553,36.523 23.164,36.732 23.254,36.971 22.925,37.419 22.776,37.688 22.507,37.3 22.118,36.91 21.818,36.76 21.609,36.552 
			21.429,36.343 21.161,36.192 20.921,36.313 21.161,36.642 21.46,36.821 21.132,37.001 		"/>
		<path fill="#A6A6A6" d="M27.592,42.117l0.062-0.3l-0.42-0.448l-0.15-0.478l-0.328-0.301l-0.209-0.06l-0.061,0.688
			c0,0,0.09,0.449,0.211,0.539c0.119,0.089,0.329,0.24,0.477,0.24C27.323,41.997,27.592,42.117,27.592,42.117z"/>
		<polygon fill="#A6A6A6" points="25.857,40.799 25.528,40.501 25.318,39.783 25.617,39.574 25.857,40.231 25.888,40.891 		"/>
		<polygon fill="#A6A6A6" points="26.216,40.142 26.126,39.574 25.888,39.574 26.008,40.142 		"/>
		<polygon fill="#A6A6A6" points="27.772,41.458 28.042,41.549 27.981,41.039 27.862,40.621 27.682,40.591 27.501,40.741 
			27.622,41.159 		"/>
		<polygon fill="#A6A6A6" points="25.199,39.394 25.379,39.036 25.17,38.706 24.871,38.437 24.871,38.825 25.02,39.066 		"/>
		<path fill="#A6A6A6" d="M24.542,39.274l0.478,0.33l0.209,0.568c0,0,0.181,0.449,0.061,0.509c-0.119,0.06-0.418-0.509-0.418-0.509
			l-0.15-0.06l-0.3-0.508L24.542,39.274z"/>
		<polygon fill="#A6A6A6" points="24.212,39.364 23.972,39.364 23.734,38.737 23.914,38.437 24.242,38.376 24.362,38.587 		"/>
		<polygon fill="#A6A6A6" points="16.016,37.39 16.165,36.671 16.553,37.031 		"/>
		<path fill="#A6A6A6" d="M11.857,41.458l0.238-0.39l0.12-0.328l0.269-0.12l0.479-0.299l0.09-0.358l-0.33-0.181l-0.209-0.208
			l-0.209,0.269l-0.148-0.12l-0.3,0.12l-0.209,0.269l0.209,0.15l-0.54,0.149l0.061,0.269l0.12,0.09l0.089,0.091l-0.178,0.329
			l-0.09,0.12c0,0-0.269,0.059-0.09,0.209c0.18,0.148,0,0.148,0.18,0.148C11.586,41.667,11.857,41.458,11.857,41.458z"/>
		<polygon fill="#A6A6A6" points="13.054,39.394 13.174,39.214 12.905,38.975 12.544,39.155 12.666,39.454 		"/>
		<polygon fill="#A6A6A6" points="6.949,42.864 6.711,42.745 6.711,42.505 7.01,42.415 7.01,42.686 		"/>
		<polygon fill="#A6A6A6" points="4.857,42.984 4.678,42.624 4.258,42.595 3.958,42.624 3.66,42.894 3.779,43.104 4.019,43.223 
			4.408,43.073 		"/>
		<polygon fill="#A6A6A6" points="2.402,43.851 2.583,43.492 2.314,43.372 1.954,43.283 1.774,43.523 1.596,43.881 1.237,44 
			1.716,44.061 2.105,43.912 		"/>
		<polygon fill="#A6A6A6" points="0.1,44.361 0.25,44.09 0.58,43.763 0.727,43.583 1.057,43.553 1.237,43.671 0.996,44.031 
			0.699,44.239 0.399,44.421 		"/>
		<polygon fill="#A6A6A6" points="3.57,35.265 3.601,35.594 3.839,35.804 3.989,36.163 4.438,36.163 4.558,35.744 4.378,35.505 
			3.958,35.505 		"/>
		<polygon fill="#A6A6A6" points="3.031,31.946 3.361,31.586 3.629,31.795 3.751,31.526 3.451,31.316 3.212,30.838 2.284,30.331 
			2.074,30.688 2.402,30.868 2.852,31.407 		"/>
	</g>
	<g id="HI">
		<polygon fill="#A6A6A6" points="29.302,49.522 29.478,49.17 29.741,49.201 29.8,48.761 29.858,48.614 29.683,48.468 
			29.622,48.614 29.302,48.878 29.213,49.055 29.126,49.376 		"/>
		<polygon fill="#A6A6A6" points="30.767,48.498 31.233,48.761 31.293,48.966 31.646,49.025 32.145,49.112 32.436,48.849 
			32.525,48.584 32.671,48.146 32.525,47.706 32.057,47.706 31.851,47.853 31.675,47.764 31.324,47.94 30.914,48.204 		"/>
		<polygon fill="#A6A6A6" points="36.421,50.403 36.833,51.076 36.949,51.457 37.389,51.545 37.535,51.193 37.711,51.339 
			37.887,51.486 38.529,51.486 38.529,51.25 38.327,50.841 38.181,50.812 38.005,50.929 38.062,50.725 37.945,50.46 37.682,50.051 
			37.476,49.875 37.154,49.875 37.096,50.167 36.627,50.373 		"/>
		<polygon fill="#A6A6A6" points="39.879,52.306 40.143,51.75 40.553,51.984 40.933,51.837 41.286,51.779 41.462,51.896 
			42.105,51.984 41.842,52.335 41.609,52.453 41.286,52.423 41.051,52.277 40.67,52.306 40.025,52.423 		"/>
		<polygon fill="#A6A6A6" points="45.36,55.647 45.946,55.851 46.209,56.116 46.53,56.028 47.322,56.467 48.114,56.849 
			48.317,57.113 48.289,57.581 48.552,57.581 48.701,57.99 48.933,58.225 49.228,58.372 49.403,58.43 49.081,58.988 48.759,59.164 
			48.493,59.485 48.114,59.632 47.615,59.515 47.352,59.662 47.058,59.836 46.677,60.042 46.326,60.54 46.092,60.833 45.74,60.599 
			45.155,60.218 45.213,59.221 45.007,58.519 44.773,58.225 44.625,57.902 44.597,57.581 45.007,57.316 45.241,57.054 
			45.448,56.818 45.331,56.525 45.213,55.91 45.213,55.705 		"/>
		<polygon fill="#A6A6A6" points="41.873,53.303 41.609,53.596 41.345,53.625 41.139,53.654 41.051,53.215 40.875,53.068 
			41.111,52.98 41.434,53.009 41.609,53.126 		"/>
		<polygon fill="#A6A6A6" points="42.723,54.152 42.195,54.562 42.458,54.651 42.781,54.533 		"/>
		<polygon fill="#A6A6A6" points="42.223,53.126 42.458,53.449 42.927,53.479 43.131,53.947 43.191,54.329 43.895,54.27 
			44.276,54.241 44.393,53.977 44.684,53.918 44.831,53.654 44.421,53.303 43.952,53.186 43.658,52.951 43.279,52.951 
			43.162,53.068 42.723,52.716 42.488,52.599 42.282,52.892 		"/>
	</g>
</g>
</svg>
