<?xml version="1.0" encoding="utf-8"?>
<!-- Generator: Adobe Illustrator 15.1.0, SVG Export Plug-In . SVG Version: 6.00 Build 0)  -->
<!DOCTYPE svg PUBLIC "-//W3C//DTD SVG 1.1//EN" "http://www.w3.org/Graphics/SVG/1.1/DTD/svg11.dtd">
<svg version="1.1" id="Layer_1" xmlns="http://www.w3.org/2000/svg" xmlns:xlink="http://www.w3.org/1999/xlink" x="0px" y="0px"
	 width="612px" height="792px" viewBox="0 0 612 792" enable-background="new 0 0 612 792" xml:space="preserve">
<polygon fill="none" stroke="#FFFFFF" stroke-width="0.5" stroke-miterlimit="1" points="24.374,11.984 24.723,10.243 26.909,7.707 
	28.599,5.222 28.998,4.177 30.391,5.42 30.141,6.115 30.788,6.663 31.632,6.663 32.728,7.161 35.46,7.558 38.842,8.852 39.19,9.546 
	37.152,11.786 37.451,12.232 35.709,16.408 30.886,14.818 "/>
<polygon fill="none" stroke="#FFFFFF" stroke-width="0.5" stroke-miterlimit="1" points="34.516,32.221 35.113,29.834 
	36.058,30.132 36.356,30.034 40.384,17.951 30.886,14.818 28.104,20.636 "/>
<path fill="none" stroke="#FFFFFF" stroke-width="0.5" stroke-miterlimit="1" d="M42.373,3.48L41.03,3.033l-2.188,5.818l0.348,0.695
	l-2.038,2.239l0.299,0.447l-1.742,4.176l4.674,1.542l4.923,1.441l1.495-5.261l-0.351-0.605c0,0-0.375,0.419-0.446,0.447
	c-0.022,0.009-1.941-0.497-1.941-0.497l-0.099,0.248l-0.747-1.441l-0.248-1.691l-0.944,0.099l0.944-1.988l-1.392-2.139l0.297-0.596
	L41.626,5.32L42.373,3.48z"/>
<path fill="none" stroke="#FFFFFF" stroke-width="0.5" stroke-miterlimit="1" d="M30.191,0l-0.449,1.393l-0.347,1.59l-0.397,1.194
	c0,0,1.397,1.264,1.393,1.243c-0.005-0.021-0.25,0.695-0.25,0.695l0.646,0.547h0.846l1.094,0.498l2.734,0.397l2.841,1.091
	l0.541,0.203l2.188-5.819L33.374,0.05l-0.151,1.69l-0.844,1.592l-0.397-0.1l0.597-0.944V1.542L30.191,0z"/>
<polygon fill="none" stroke="#FFFFFF" stroke-width="0.5" stroke-miterlimit="1" points="48.24,22.028 44.909,21.233 45.307,19.393 
	40.384,17.951 36.989,28.143 46.301,30.48 "/>
<polygon fill="none" stroke="#FFFFFF" stroke-width="0.5" stroke-miterlimit="1" points="27.48,35.975 32.516,36.982 33.284,36.953 
	33.262,36.535 32.889,36.124 33.485,35.005 34.753,34.036 34.516,32.221 28.104,20.636 30.886,14.818 24.374,11.984 23.529,13.86 
	22.41,14.756 22.41,17.254 21.888,18.149 22.484,19.455 22.26,20.35 22.671,21.394 22.335,22.699 22.969,23.818 22.781,24.153 
	22.521,23.93 22.11,24.712 23.342,27.808 22.857,29.3 24.647,30.382 25.318,31.426 26.288,31.797 26.25,32.581 26.698,32.73 
	27.631,34.409 "/>
<polygon fill="none" stroke="#FFFFFF" stroke-width="0.5" stroke-miterlimit="1" points="43.293,42.986 46.301,30.48 36.989,28.143 
	36.356,30.034 36.058,30.132 35.113,29.834 34.53,32.221 34.753,34.036 33.485,35.005 32.889,36.124 33.262,36.535 33.262,36.944 
	32.516,36.982 32.218,37.542 38.816,42.053 "/>
<polygon fill="none" stroke="#FFFFFF" stroke-width="0.5" stroke-miterlimit="1" points="57.984,15.016 47.098,13.115 
	45.307,19.393 44.909,21.233 48.24,22.028 56.83,23.333 "/>
<polygon fill="none" stroke="#FFFFFF" stroke-width="0.5" stroke-miterlimit="1" points="59.031,6.924 57.984,15.016 47.098,13.115 
	46.799,14.122 46.451,13.525 46.004,13.972 44.063,13.475 43.964,13.724 43.217,12.282 42.969,10.591 42.025,10.69 42.969,8.702 
	41.578,6.563 41.875,5.966 41.627,5.32 42.373,3.48 45.046,4.276 50.677,5.693 "/>
<polygon fill="none" stroke="#FFFFFF" stroke-width="0.5" stroke-miterlimit="1" points="60.373,23.595 56.83,23.333 48.24,22.028 
	46.301,30.48 57.613,32.245 59.519,32.198 "/>
<polygon fill="none" stroke="#FFFFFF" stroke-width="0.5" stroke-miterlimit="1" points="45.084,43.359 45.307,42.203 
	48.998,42.836 48.699,42.352 56.271,43.359 57.613,32.245 46.301,30.48 43.293,42.986 "/>
<polygon fill="none" stroke="#FFFFFF" stroke-width="0.5" stroke-miterlimit="1" points="63.319,33.701 57.511,33.139 
	56.271,43.359 48.699,42.352 48.998,42.836 49.52,43.657 50.154,44.143 50.715,44.962 51.05,45.56 51.832,45.932 52.28,47.052 
	52.132,47.573 52.429,48.319 53.324,49.214 55.338,50.22 56.01,49.586 56.457,48.655 57.203,48.655 57.352,48.282 57.838,48.542 
	59.329,48.73 59.777,49.4 60.112,49.736 60.933,50.519 61.566,52.383 62.201,53.13 62.798,53.951 63.245,53.951 63.395,55.629 
	64.252,57.12 64.625,56.971 65.593,57.419 66.265,58.09 67.534,58.239 68.167,58.461 68.651,58.053 68.055,55.592 68.13,54.995 
	68.54,54.1 68.055,53.615 68.914,53.652 69.399,52.906 70.516,52.086 70.032,51.751 71.001,51.937 72.643,51.116 73.985,49.998 
	73.611,49.288 73.91,49.4 74.283,48.916 74.283,49.476 74.693,49.513 75.961,49.103 75.924,48.767 76.594,47.76 76.446,46.978 
	76.631,45.597 75.997,44.627 75.924,44.104 75.401,43.807 75.215,40.189 72.866,39.368 70.592,39.929 69.399,39.519 68.802,39.929 
	68.651,39.593 68.428,39.629 67.943,39.332 67.421,39.629 66.936,38.921 66.154,39.332 64.773,38.846 64.363,38.361 63.879,38.397 
	63.169,37.839 "/>
<path fill="none" stroke="#FFFFFF" stroke-width="0.5" stroke-miterlimit="1" d="M59.519,32.198l14.166,0.458l0.038,1.185l0.56,2.06
	l0.077,2.274l0.036,1.715l-1.529-0.522l-2.274,0.561l-1.194-0.41l-0.596,0.41l-0.151-0.335l-0.224,0.036l-0.485-0.298l-0.521,0.298
	l-0.486-0.708l-0.782,0.411l-1.38-0.486l-0.411-0.484l-0.484,0.036l-0.709-0.558l0.15-4.14l-5.809-0.561l0.103-0.893L59.519,32.198z
	"/>
<polygon fill="none" stroke="#FFFFFF" stroke-width="0.5" stroke-miterlimit="1" points="72.072,26.011 66.645,26.257 
	60.168,25.697 59.519,32.198 73.685,32.656 73.506,27.974 72.573,27.08 73.062,26.581 72.819,26.249 72.532,26.381 "/>
<polygon fill="none" stroke="#FFFFFF" stroke-width="0.5" stroke-miterlimit="1" points="66.671,19.813 57.396,19.115 56.83,23.333 
	60.373,23.595 60.168,25.697 66.645,26.257 72.072,26.011 72.062,25.877 71.424,24.865 71.145,22.997 69.976,20.714 68.724,20.042 
	67.467,20.323 "/>
<polygon fill="none" stroke="#FFFFFF" stroke-width="0.5" stroke-miterlimit="1" points="69.841,13.806 63.949,13.559 58.24,13.054 
	57.396,19.115 66.671,19.813 67.467,20.323 68.724,20.042 69.976,20.714 69.697,20.331 69.987,19.152 69.853,18.762 70.136,18.732 
	"/>
<polygon fill="none" stroke="#FFFFFF" stroke-width="0.5" stroke-miterlimit="1" points="68.816,7.574 69.058,8.099 68.978,9.338 
	69.369,10.2 69.557,12.488 69.841,13.806 63.949,13.559 58.24,13.054 59.029,6.956 62.301,7.385 "/>
<polygon fill="none" stroke="#FFFFFF" stroke-width="0.5" stroke-miterlimit="1" points="109.09,1.598 109.472,1.598 109.569,1.852 
	109.902,1.852 110.487,1.123 111.519,1.423 112.884,3.771 113.343,3.707 113.645,3.74 113.961,4.342 114.232,4.342 114.341,4.185 
	115.15,4.691 115.072,5.072 113.899,6.817 113.422,6.578 113.375,7.229 112.82,6.769 112.945,7.784 112.582,8.022 112.185,8.768 
	111.884,8.467 111.582,9.084 111.868,9.434 111.551,10.796 110.822,10.21 108.791,6.706 109.25,6.689 109.075,6.087 109.377,5.119 
	109.108,4.738 109.125,4.024 108.871,3.327 108.981,2.994 108.966,2.185 109.075,2.042 "/>
<polygon fill="none" stroke="#FFFFFF" stroke-width="0.5" stroke-miterlimit="1" points="108.062,12.922 109.098,12.428 
	108.633,10.812 108.396,9.338 108.871,8.338 108.537,8.101 108.544,7.426 105.836,8.701 106.094,9.576 106.554,9.924 
	106.554,10.433 106.989,11.432 107.22,11.257 "/>
<polygon fill="none" stroke="#FFFFFF" stroke-width="0.5" stroke-miterlimit="1" points="108.871,8.338 108.537,8.101 
	108.537,6.975 108.791,6.706 110.822,10.21 111.551,10.796 111.71,11.146 111.329,11.146 111.059,11.67 109.098,12.428 
	108.633,10.812 108.396,9.338 "/>
<path fill="none" stroke="#FFFFFF" stroke-width="0.5" stroke-miterlimit="1" d="M108.062,12.922l0.254,1.494l1.138-0.482
	l1.381-0.655l0.134,0.072l0.583-0.298l0.81,0.902l0.677-0.799l0.134,0.206l0.562-0.358l0.358-0.133l-0.02-0.338l-0.698-0.45
	l0.37,0.358l0.103,0.295l-0.388,0.226l-0.278-0.154l-0.184-0.308l-0.778-0.265l-0.307,0.051c0,0-0.225-0.215-0.135-0.225
	c0.093-0.011,0.379-0.769,0.379-0.769l-0.345,0.052l-0.101-0.197h-0.38l-0.27,0.523l-1.962,0.758l0,0L108.062,12.922z"/>
<path fill="none" stroke="#FFFFFF" stroke-width="0.5" stroke-miterlimit="1" d="M111.562,14.775"/>
<path fill="none" stroke="#FFFFFF" stroke-width="0.5" stroke-miterlimit="1" d="M112.607,13.792"/>
<polygon fill="none" stroke="#FFFFFF" stroke-width="0.5" stroke-miterlimit="1" points="111.562,14.775 112.127,14.344 
	111.882,13.422 111.553,13.054 110.969,13.352 110.999,13.536 111.44,14.406 111.44,14.616 "/>
<polygon fill="none" stroke="#FFFFFF" stroke-width="0.5" stroke-miterlimit="1" points="108.991,16.434 108.838,16.342 
	109.023,15.962 108.316,14.417 109.454,13.934 110.835,13.279 110.969,13.352 110.999,13.536 111.44,14.406 111.44,14.616 
	111.562,14.775 "/>
<polygon fill="none" stroke="#FFFFFF" stroke-width="0.5" stroke-miterlimit="1" points="107.021,16.501 108.665,16.72 
	108.409,17.857 108.981,17.878 109.362,19.701 108.674,21.391 108.551,20.971 108.316,21.053 107.189,20.634 107.133,20.026 
	108.082,18.826 106.842,18.236 106.667,17.889 106.793,17.575 106.558,17.393 "/>
<polygon fill="none" stroke="#FFFFFF" stroke-width="0.5" stroke-miterlimit="1" points="106.523,20.335 106.878,19.9 
	106.989,19.876 107.133,20.026 107.189,20.634 107.416,20.716 107.896,21.504 108.439,21.617 108.644,21.791 108.991,22.354 
	108.576,22.575 107.91,22.854 "/>
<polygon fill="none" stroke="#FFFFFF" stroke-width="0.5" stroke-miterlimit="1" points="100.401,22.352 106.523,20.335 
	107.91,22.854 108.576,22.575 108.991,22.354 108.779,23.32 108.804,24.912 108.579,25.657 108.231,25.087 108.182,24.688 
	108.407,23.818 107.934,23.892 107.711,23.42 107.511,23.595 106.74,23.146 106.989,22.725 106.293,21.581 106.518,20.884 
	105.945,21.457 106.169,21.929 106.268,22.848 106.989,23.992 106.518,23.992 106.143,24.141 105.68,23.916 105.596,23.744 
	105.199,24.066 105.071,23.791 105.275,23.104 105.173,22.773 104.33,22.624 104.238,22.318 103.633,22.3 103.483,22.077 
	103.036,21.853 102.641,21.769 102.366,22.202 102.062,22.239 101.793,22.177 101.365,22.61 100.838,23.352 100.537,22.985 "/>
<polygon fill="none" stroke="#FFFFFF" stroke-width="0.5" stroke-miterlimit="1" points="98.014,17.379 98.362,17.901 
	105.294,15.523 106.068,15.936 106.217,16.359 107.021,16.501 108.665,16.72 108.409,17.857 109.25,17.23 109.749,16.956 
	110.294,16.459 110.669,16.334 111.639,15.19 110.842,15.588 110.271,15.962 109.872,16.284 108.927,16.806 108.991,16.434 
	108.838,16.342 109.023,15.962 108.316,14.417 108.062,12.922 107.22,11.257 106.989,11.432 106.554,10.433 106.554,9.924 
	106.094,9.576 105.836,8.701 103.755,9.423 101.942,11.984 102.563,12.132 102.763,12.903 102.215,13.875 101.096,14.345 
	99.604,14.396 98.437,14.992 99.182,15.862 98.834,16.434 "/>
<polygon fill="none" stroke="#FFFFFF" stroke-width="0.5" stroke-miterlimit="1" points="81.331,41.108 75.295,41.49 75.401,43.807 
	75.924,44.104 75.997,44.627 76.631,45.597 76.446,46.978 76.594,47.76 75.924,48.767 75.961,49.103 76.465,49.065 77.528,48.786 
	78.125,48.767 78.981,49.159 79.857,49.178 80.157,49.084 80.753,49.271 80.904,48.99 80.53,48.841 80.25,48.935 79.953,48.767 
	80.624,48.431 81.201,48.655 81.388,49.084 82.151,49.586 83.195,49.867 83.605,49.811 84.241,49.476 84.501,49.848 84.67,49.624 
	84.763,48.879 86.794,49.736 86.777,49.438 86.74,49.103 85.955,49.009 85.304,48.355 86.012,47.963 85.788,47.349 85.416,47.928 
	85.062,47.723 84.986,47.462 84.445,47.499 83.83,47.48 84.109,46.809 85.172,47.182 85.416,47.256 85.695,47.033 84.892,46.063 
	84.837,45.336 80.847,45.69 81.302,43.718 82.096,42.463 "/>
<polygon fill="none" stroke="#FFFFFF" stroke-width="0.5" stroke-miterlimit="1" points="83.364,34.111 83.064,35.341 
	82.637,36.366 81.07,39.368 81.331,41.108 75.29,41.49 75.215,40.189 74.396,39.89 74.283,35.9 73.723,33.841 73.723,33.645 
	77.593,33.467 79.159,33.346 82.059,33.029 82.451,32.992 82.488,33.252 82.562,33.346 82.225,34.092 "/>
<polygon fill="none" stroke="#FFFFFF" stroke-width="0.5" stroke-miterlimit="1" points="79.042,24.827 79.034,25.269 
	78.945,25.458 79.914,26.652 80.66,27.155 80.94,27.976 81.275,27.716 81.772,27.96 81.407,28.928 81.704,29.393 83.214,30.325 
	83.662,30.979 83.318,31.188 83.667,31.686 84.165,31.687 84.26,32.716 83.737,32.955 83.364,34.111 82.225,34.092 82.562,33.346 
	82.488,33.252 82.451,32.992 79.159,33.346 77.593,33.467 73.723,33.645 73.685,32.656 73.506,27.974 72.573,27.08 73.062,26.581 
	72.819,26.249 72.532,26.381 72.072,26.011 72.062,25.877 71.424,24.865 75.142,24.77 77.882,24.434 78.432,24.442 "/>
<polygon fill="none" stroke="#FFFFFF" stroke-width="0.5" stroke-miterlimit="1" points="78.58,18.265 74.954,18.597 70.136,18.732 
	69.853,18.762 69.987,19.152 69.697,20.331 69.976,20.714 71.145,22.997 71.424,24.865 75.142,24.77 76.631,24.582 77.882,24.434 
	78.432,24.442 79.042,24.827 79.076,24.47 79.466,24.229 79.561,23.78 79.788,23.647 79.784,23.258 79.411,23.035 79.494,22.896 
	79.503,22.681 80.767,21.936 80.829,21.076 80.194,20.667 79.727,19.958 79.335,19.903 78.834,19.08 79.055,18.858 "/>
<path fill="none" stroke="#FFFFFF" stroke-width="0.5" stroke-miterlimit="1" d="M71.859,7.428l0.056-0.653l0.224,0.038l0.355,1.024
	l1.137,0.243l0.13,0.28l0.876-0.354l1.211,0.372l0.112,0.504l0.373-0.41l1.026,0.521l0.821-0.39l0.279,0.335l0.766-0.223
	l0.912,0.148l-1.043,0.652c0,0-0.728,0.485-0.764,0.56c-0.037,0.074-0.503,0.708-0.503,0.708l-1.338,1.092l-0.023,0.643l0.023,0.669
	c0,0-0.581,0.342-0.638,0.398c-0.055,0.056-0.301,0.554-0.301,0.554l0.544,0.468l-0.223,0.115l0.111,1.24l1.32,0.713l1.064,0.69
	l0.259,0.237l-0.045,0.661l-3.627,0.333l-4.817,0.135l-0.296-4.928l-0.283-1.317l-0.188-2.289l-0.391-0.861l0.08-1.24l-0.242-0.524
	L71.859,7.428z"/>
<polygon fill="none" stroke="#FFFFFF" stroke-width="0.5" stroke-miterlimit="1" points="88.192,46.418 86.944,46.384 
	85.646,46.986 84.892,46.063 84.837,45.336 80.847,45.69 81.302,43.718 82.096,42.463 81.331,41.108 81.07,39.368 82.637,36.366 
	86.866,35.87 87.058,36.873 87.359,41.928 87.487,43.144 87.938,45.574 "/>
<polygon fill="none" stroke="#FFFFFF" stroke-width="0.5" stroke-miterlimit="1" points="91.849,35.06 93.642,39.453 94.579,40.946 
	94.313,41.871 94.765,42.635 94.765,43.444 95.15,43.684 89.489,44.764 89.535,45.089 90.106,45.466 89.998,46.291 89.581,46.408 
	89.373,46.291 88.771,45.505 88.703,45.806 88.54,46.314 88.192,46.418 87.938,45.574 87.487,43.144 87.359,41.928 87.058,36.873 
	86.866,35.87 "/>
<polygon fill="none" stroke="#FFFFFF" stroke-width="0.5" stroke-miterlimit="1" points="96.662,34.049 96.409,34.604 
	97.363,34.947 97.363,34.947 97.912,35.552 99.23,36.593 99.972,36.652 100.203,37.08 101.174,37.614 101.535,38.331 
	101.986,38.574 102.402,39.372 103.027,39.488 102.819,40.552 102.842,42.611 101.476,42.796 101.824,43.816 101.429,43.838 
	101.269,43.444 95.831,44.394 95.482,44.371 95.15,43.684 94.765,43.444 94.765,42.635 94.313,41.871 94.579,40.946 93.642,39.453 
	91.849,35.06 "/>
<polygon fill="none" stroke="#FFFFFF" stroke-width="0.5" stroke-miterlimit="1" points="101.331,33.301 100.945,32.8 
	100.436,32.753 98.445,33.076 96.662,34.049 96.409,34.604 97.363,34.947 97.912,35.552 99.23,36.593 99.972,36.652 100.203,37.08 
	101.174,37.614 101.535,38.331 101.986,38.574 102.402,39.372 103.027,39.488 103.768,38.214 104.855,37.08 105.619,36.016 
	105.527,35.53 105.619,35.16 106.012,34.35 106.429,34.119 104.74,33.332 103.514,32.776 "/>
<polygon fill="none" stroke="#FFFFFF" stroke-width="0.5" stroke-miterlimit="1" points="106.174,47.032 104.185,45.112 
	102.842,42.611 101.476,42.796 101.824,43.816 101.429,43.838 101.269,43.444 95.831,44.394 95.482,44.371 95.15,43.684 
	89.489,44.764 89.535,45.089 90.106,45.466 89.998,46.291 91.825,45.69 92.38,45.69 94.14,46.153 94.464,46.199 95.182,46.824 
	95.853,46.685 96.708,46.061 97.102,45.782 97.45,45.297 98.12,45.527 98.561,45.597 98.931,45.967 99.37,45.967 99.556,46.43 
	100.436,46.986 100.898,46.777 101.523,47.471 101.662,49.879 102.194,50.179 102.218,49.833 101.917,49.531 102.542,49.555 
	102.749,49.786 102.355,50.665 103.837,52.031 104.045,51.615 104.299,52.587 104.787,52.679 105.481,53.79 106.29,53.906 
	107.238,54.762 107.215,55.271 107.587,55.411 108.791,54.877 109.276,54.16 109.113,53.813 109.276,52.98 108.604,50.503 
	106.544,48.004 "/>
<polygon fill="none" stroke="#FFFFFF" stroke-width="0.5" stroke-miterlimit="1" points="108.812,26.921 109.623,27.685 
	108.165,28.586 109.507,28.056 110.294,28.657 109.762,29.583 108.536,29.652 109.137,29.86 109.252,30.161 108.951,30.809 
	109.669,30.323 109.531,31.017 108.304,31.574 107.587,32.66 107.355,33.725 106.429,34.119 103.514,32.776 101.331,33.301 
	100.945,32.8 100.436,32.753 98.445,33.076 96.662,34.049 94.255,34.556 94.349,34.003 94.743,33.863 94.904,33.147 95.483,32.904 
	96.385,32.197 96.87,31.642 97.102,31.642 97.613,31.227 98.074,31.227 98.375,30.578 98.711,30.532 98.49,29.976 101.865,29.237 
	105.391,28.079 "/>
<polygon fill="none" stroke="#FFFFFF" stroke-width="0.5" stroke-miterlimit="1" points="86.439,32.518 86.318,32.151 86.757,32.06 
	89.337,31.756 94.913,30.738 98.49,29.976 98.711,30.532 98.375,30.578 98.074,31.227 97.613,31.227 97.102,31.642 96.87,31.642 
	96.385,32.197 95.483,32.904 94.904,33.147 94.743,33.863 94.349,34.003 94.255,34.556 91.849,35.06 86.866,35.87 82.637,36.366 
	83.064,35.341 83.377,34.049 83.737,32.955 84.26,32.716 85.027,32.708 "/>
<polygon fill="none" stroke="#FFFFFF" stroke-width="0.5" stroke-miterlimit="1" points="97.014,18.259 98.014,17.379 
	98.362,17.901 105.294,15.523 106.068,15.936 106.217,16.359 107.021,16.501 106.558,17.393 106.793,17.575 106.667,17.889 
	106.842,18.236 108.082,18.826 107.133,20.026 106.989,19.876 106.878,19.9 106.523,20.335 100.401,22.352 98.544,22.752 
	98.156,21.713 "/>
<polygon fill="none" stroke="#FFFFFF" stroke-width="0.5" stroke-miterlimit="1" points="107.769,25.287 107.365,24.317 
	106.989,23.992 106.518,23.992 106.143,24.141 105.68,23.916 105.596,23.744 105.199,24.066 105.071,23.791 105.275,23.104 
	105.173,22.773 104.33,22.624 104.238,22.318 103.633,22.3 103.613,22.78 102.588,22.309 102.602,23.224 102.007,24.068 
	101.741,24.055 101.412,24.99 100.761,24.761 100.594,26.326 100.281,26.824 100.511,27.061 99.223,28.223 98.849,28.418 
	98.572,28.32 98.282,28.638 97.229,28.1 97.146,28.362 95.94,29.941 94.913,30.738 98.49,29.976 101.865,29.237 108.812,26.921 
	109.03,26.783 108.627,26.201 108.28,26.133 108.088,26.285 107.519,25.454 "/>
<polygon fill="none" stroke="#FFFFFF" stroke-width="0.5" stroke-miterlimit="1" points="95.705,27.087 95.718,26.562 96.245,26.16 
	96.314,25.772 96.244,25.412 96.425,24.997 96.661,25.19 96.938,24.955 96.661,24.553 97.035,23.972 97.354,24.041 97.922,23.071 
	98.156,21.713 98.544,22.752 100.401,22.352 100.537,22.985 100.838,23.352 101.365,22.61 101.793,22.177 102.062,22.239 
	102.366,22.202 102.641,21.769 103.036,21.853 103.483,22.077 103.633,22.3 103.613,22.78 102.588,22.309 102.602,23.224 
	102.007,24.068 101.741,24.055 101.412,24.99 100.761,24.761 100.594,26.326 100.281,26.824 100.511,27.061 99.223,28.223 
	98.849,28.418 98.572,28.32 98.282,28.638 97.229,28.1 96.689,27.96 "/>
<polygon fill="none" stroke="#FFFFFF" stroke-width="0.5" stroke-miterlimit="1" points="90.039,20.522 91.26,25.979 92.367,26.022 
	92.561,26.355 94.224,26.408 95.013,25.979 95.718,26.562 96.245,26.16 96.314,25.772 96.244,25.412 96.425,24.997 96.661,25.19 
	96.938,24.955 96.661,24.553 97.035,23.972 97.354,24.041 97.922,23.071 98.156,21.713 97.014,18.259 96.08,18.93 95.898,18.985 
	95.345,19.747 94.03,20.342 92.315,19.866 "/>
<polygon fill="none" stroke="#FFFFFF" stroke-width="0.5" stroke-miterlimit="1" points="85.539,31.409 85.36,31.014 85.416,30.675 
	86.05,30.384 85.802,29.886 86.342,29.442 87.146,29.276 87.672,29.51 88.185,28.93 88.669,29.138 89.016,28.459 89.708,28.695 
	90.483,26.991 91.37,26.576 91.26,25.979 92.367,26.022 92.561,26.355 94.224,26.408 95.013,25.979 95.718,26.562 95.705,27.087 
	96.689,27.96 97.229,28.1 97.146,28.362 95.94,29.941 94.913,30.738 89.337,31.756 86.757,32.06 86.318,32.151 86.439,32.518 
	85.027,32.708 84.26,32.716 84.165,31.687 84.348,31.284 84.902,31.299 85.013,31.382 "/>
<polygon fill="none" stroke="#FFFFFF" stroke-width="0.5" stroke-miterlimit="1" points="86.633,27.517 86.287,26.853 
	86.342,26.465 86.453,26.105 85.456,21.285 85.928,21.438 86.473,21.207 86.901,21.031 90,20.427 90.039,20.522 91.26,25.979 
	91.37,26.576 90.483,26.991 89.708,28.695 89.016,28.459 88.669,29.138 88.185,28.93 87.672,29.51 87.146,29.276 86.342,29.442 
	85.802,29.886 85.928,28.75 "/>
<polygon fill="none" stroke="#FFFFFF" stroke-width="0.5" stroke-miterlimit="1" points="84.58,19.697 85.456,21.285 86.453,26.105 
	86.342,26.465 86.287,26.853 86.633,27.517 85.928,28.75 85.802,29.886 86.05,30.384 85.416,30.675 85.36,31.014 85.539,31.409 
	85.013,31.382 84.902,31.299 84.348,31.284 84.165,31.687 83.667,31.686 83.318,31.188 83.662,30.979 83.214,30.325 81.704,29.393 
	81.407,28.928 81.772,27.96 81.275,27.716 80.94,27.976 80.66,27.155 79.914,26.652 78.945,25.458 79.034,25.269 79.042,24.827 
	79.076,24.47 79.466,24.229 79.561,23.78 79.788,23.647 79.784,23.258 79.411,23.035 79.494,22.896 79.503,22.681 80.767,21.936 
	80.767,21.936 80.829,21.076 80.194,20.667 79.972,20.329 81.883,20.052 "/>
<polygon fill="none" stroke="#FFFFFF" stroke-width="0.5" stroke-miterlimit="1" points="84.88,13.85 84.51,15.702 84.563,16.259 
	84.271,16.696 84.445,17.358 84.232,18.007 84.245,18.365 84.709,19.053 84.58,19.697 79.972,20.329 79.727,19.958 79.335,19.903 
	78.834,19.08 79.055,18.858 78.58,18.265 78.626,17.604 78.366,17.366 77.216,16.629 75.982,15.962 75.872,14.723 76.094,14.608 
	75.549,14.14 75.851,13.586 76.488,13.188 76.465,12.519 76.488,11.876 76.78,11.89 78.5,11.149 78.646,11.215 78.487,11.838 
	78.87,11.757 79.302,11.893 79.943,12.301 82.635,12.635 83.478,13.135 83.543,13.929 83.94,13.81 83.9,14.141 84.126,14.299 
	83.65,15.306 84.086,14.922 84.43,14.631 "/>
<path fill="none" stroke="#FFFFFF" stroke-width="0.5" stroke-miterlimit="1" d="M87.197,13.625l-0.675,0.715l0.131,0.278
	l-0.37,0.145l0.292,0.861l-0.398,0.556l0.371,0.503l-0.119,0.424l0.821,1.402l0.014,1.074l-0.225,1.005l-0.567,0.62l0.429-0.176
	L90,20.426l0.04,0.097l2.275-0.656l0.376-0.681l-0.133-0.635l0.609-0.834l0.147-0.291l-0.054-0.491l-0.953-1.761l-0.569-0.132
	l-0.809,1.113l-0.449-0.131l0.024-0.518l0.333-0.186l0.041-0.503l0.318-0.172l-0.73-1.932l-2.157-0.595l-0.119-0.292l0.159-0.159
	l0.648-0.145l0.185-0.279l-0.398-0.703l-1.165,0.239l-0.16,0.093l-0.171-0.556l-1.483,0.345l-0.726,0.674l-1.126,0.159l-0.555-0.569
	l-0.901-0.199l-0.304,0.278l0.119-0.782l0.649-0.701l-0.676,0.171l-0.489,0.556l-0.994,0.862l-0.673,0.185l-0.81,0.595l0.624,0.411
	l2.692,0.334l0.842,0.5l0.065,0.794l0.396-0.119L83.9,14.141l0.226,0.159l0.264-0.661l0.081-0.583c0,0,0.342-0.171,0.383-0.198
	c0.04-0.028,0.531-0.385,0.531-0.385l1.072-0.398l0.358-0.092l0.171-0.186l0.452,0.106l0.516,0.105l0.065,0.145l-0.333,0.504
	l0.333,0.331l-0.569,0.437L87.197,13.625z"/>
<path fill="none" stroke="#FFFFFF" stroke-width="0.5" stroke-miterlimit="1" d="M91.26,25.979"/>
</svg>
